<mxfile host="app.diagrams.net" modified="2022-09-07T23:25:24.681Z" agent="5.0 (Windows NT 10.0; Win64; x64) AppleWebKit/537.36 (KHTML, like Gecko) Chrome/104.0.0.0 Safari/537.36" etag="Dif3JzoKoXyEuv7HI3eX" version="20.3.0" type="github">
  <diagram id="W2Kl_2uQIf7lUVDDF4k6" name="Página-1">
    <mxGraphModel dx="1847" dy="555" grid="1" gridSize="10" guides="1" tooltips="1" connect="1" arrows="1" fold="1" page="1" pageScale="1" pageWidth="827" pageHeight="1169" background="#999999" math="0" shadow="0">
      <root>
        <mxCell id="0" />
        <mxCell id="1" parent="0" />
        <mxCell id="NpNa2EtzyCN-36wTBZmu-7" value="" style="edgeStyle=orthogonalEdgeStyle;rounded=0;orthogonalLoop=1;jettySize=auto;html=1;" parent="1" source="NpNa2EtzyCN-36wTBZmu-1" target="NpNa2EtzyCN-36wTBZmu-2" edge="1">
          <mxGeometry relative="1" as="geometry" />
        </mxCell>
        <mxCell id="NpNa2EtzyCN-36wTBZmu-1" value="inicio" style="ellipse;whiteSpace=wrap;html=1;fillColor=#e1d5e7;strokeColor=#9673a6;" parent="1" vertex="1">
          <mxGeometry x="-660" y="160" width="120" height="80" as="geometry" />
        </mxCell>
        <mxCell id="NpNa2EtzyCN-36wTBZmu-8" value="" style="edgeStyle=orthogonalEdgeStyle;rounded=0;orthogonalLoop=1;jettySize=auto;html=1;" parent="1" source="NpNa2EtzyCN-36wTBZmu-2" target="NpNa2EtzyCN-36wTBZmu-4" edge="1">
          <mxGeometry relative="1" as="geometry" />
        </mxCell>
        <mxCell id="NpNa2EtzyCN-36wTBZmu-2" value="num" style="rounded=0;whiteSpace=wrap;html=1;fillColor=#d5e8d4;strokeColor=#82b366;" parent="1" vertex="1">
          <mxGeometry x="-660" y="270" width="120" height="60" as="geometry" />
        </mxCell>
        <mxCell id="NpNa2EtzyCN-36wTBZmu-6" style="edgeStyle=orthogonalEdgeStyle;rounded=0;orthogonalLoop=1;jettySize=auto;html=1;" parent="1" source="NpNa2EtzyCN-36wTBZmu-3" edge="1">
          <mxGeometry relative="1" as="geometry">
            <mxPoint x="-700" y="590" as="targetPoint" />
          </mxGeometry>
        </mxCell>
        <mxCell id="eyTfxPveqKXqOf9gxz-T-8" value="si" style="edgeLabel;html=1;align=center;verticalAlign=middle;resizable=0;points=[];" parent="NpNa2EtzyCN-36wTBZmu-6" vertex="1" connectable="0">
          <mxGeometry x="-0.4143" y="2" relative="1" as="geometry">
            <mxPoint as="offset" />
          </mxGeometry>
        </mxCell>
        <mxCell id="NpNa2EtzyCN-36wTBZmu-10" style="edgeStyle=orthogonalEdgeStyle;rounded=0;orthogonalLoop=1;jettySize=auto;html=1;" parent="1" source="NpNa2EtzyCN-36wTBZmu-3" edge="1">
          <mxGeometry relative="1" as="geometry">
            <mxPoint x="-500" y="590" as="targetPoint" />
          </mxGeometry>
        </mxCell>
        <mxCell id="bkSHiZYTZ1AwlbhpygEu-3" value="no" style="edgeLabel;html=1;align=center;verticalAlign=middle;resizable=0;points=[];fontColor=#000099;" parent="NpNa2EtzyCN-36wTBZmu-10" vertex="1" connectable="0">
          <mxGeometry x="-0.2857" y="-1" relative="1" as="geometry">
            <mxPoint as="offset" />
          </mxGeometry>
        </mxCell>
        <mxCell id="NpNa2EtzyCN-36wTBZmu-3" value="num&amp;lt;=0" style="rhombus;whiteSpace=wrap;html=1;fillColor=#ffe6cc;strokeColor=#d79b00;" parent="1" vertex="1">
          <mxGeometry x="-640" y="470" width="80" height="80" as="geometry" />
        </mxCell>
        <mxCell id="NpNa2EtzyCN-36wTBZmu-9" value="" style="edgeStyle=orthogonalEdgeStyle;rounded=0;orthogonalLoop=1;jettySize=auto;html=1;" parent="1" source="NpNa2EtzyCN-36wTBZmu-4" target="NpNa2EtzyCN-36wTBZmu-3" edge="1">
          <mxGeometry relative="1" as="geometry" />
        </mxCell>
        <mxCell id="NpNa2EtzyCN-36wTBZmu-4" value="num" style="shape=parallelogram;perimeter=parallelogramPerimeter;whiteSpace=wrap;html=1;fixedSize=1;fillColor=#dae8fc;strokeColor=#6c8ebf;" parent="1" vertex="1">
          <mxGeometry x="-660" y="370" width="120" height="60" as="geometry" />
        </mxCell>
        <mxCell id="eyTfxPveqKXqOf9gxz-T-10" style="edgeStyle=orthogonalEdgeStyle;rounded=0;orthogonalLoop=1;jettySize=auto;html=1;entryX=0.5;entryY=0;entryDx=0;entryDy=0;" parent="1" target="eyTfxPveqKXqOf9gxz-T-6" edge="1">
          <mxGeometry relative="1" as="geometry">
            <mxPoint x="-500" y="650" as="sourcePoint" />
            <Array as="points">
              <mxPoint x="-500" y="680" />
              <mxPoint x="-600" y="680" />
            </Array>
          </mxGeometry>
        </mxCell>
        <mxCell id="eyTfxPveqKXqOf9gxz-T-6" value="fin" style="ellipse;whiteSpace=wrap;html=1;fillColor=#e1d5e7;strokeColor=#9673a6;" parent="1" vertex="1">
          <mxGeometry x="-660" y="710" width="120" height="80" as="geometry" />
        </mxCell>
        <mxCell id="eyTfxPveqKXqOf9gxz-T-11" style="edgeStyle=orthogonalEdgeStyle;rounded=0;orthogonalLoop=1;jettySize=auto;html=1;" parent="1" source="eyTfxPveqKXqOf9gxz-T-9" edge="1">
          <mxGeometry relative="1" as="geometry">
            <mxPoint x="-600" y="700" as="targetPoint" />
            <Array as="points">
              <mxPoint x="-700" y="680" />
              <mxPoint x="-600" y="680" />
            </Array>
          </mxGeometry>
        </mxCell>
        <mxCell id="eyTfxPveqKXqOf9gxz-T-9" value="num = positivo" style="shape=document;whiteSpace=wrap;html=1;boundedLbl=1;fillColor=#f8cecc;strokeColor=#b85450;" parent="1" vertex="1">
          <mxGeometry x="-760" y="590" width="120" height="80" as="geometry" />
        </mxCell>
        <mxCell id="eyTfxPveqKXqOf9gxz-T-12" value="num = negativo&amp;nbsp;" style="shape=document;whiteSpace=wrap;html=1;boundedLbl=1;fillColor=#f8cecc;strokeColor=#b85450;" parent="1" vertex="1">
          <mxGeometry x="-560" y="590" width="120" height="80" as="geometry" />
        </mxCell>
        <mxCell id="eyTfxPveqKXqOf9gxz-T-13" value="&lt;span style=&quot;font-family: &amp;quot;Century Gothic&amp;quot;, Arial, Helvetica, sans-serif; text-align: left; background-color: rgb(255, 255, 255);&quot;&gt;&lt;font color=&quot;#000099&quot; style=&quot;font-size: 20px;&quot;&gt;&lt;b style=&quot;&quot;&gt;Proceso&amp;nbsp; para determinar si un&lt;br&gt;&amp;nbsp;número es positivo o negativo&lt;/b&gt;&lt;/font&gt;&lt;/span&gt;" style="text;html=1;align=center;verticalAlign=middle;resizable=0;points=[];autosize=1;strokeColor=none;fillColor=none;" parent="1" vertex="1">
          <mxGeometry x="-760" y="80" width="320" height="60" as="geometry" />
        </mxCell>
        <mxCell id="bkSHiZYTZ1AwlbhpygEu-2" value="" style="edgeStyle=orthogonalEdgeStyle;rounded=0;orthogonalLoop=1;jettySize=auto;html=1;fontColor=#000099;" parent="1" source="eyTfxPveqKXqOf9gxz-T-14" target="bkSHiZYTZ1AwlbhpygEu-1" edge="1">
          <mxGeometry relative="1" as="geometry" />
        </mxCell>
        <mxCell id="eyTfxPveqKXqOf9gxz-T-14" value="&lt;font style=&quot;font-size: 13px;&quot;&gt;inicio&lt;/font&gt;" style="ellipse;whiteSpace=wrap;html=1;fontSize=20;fillColor=#e1d5e7;strokeColor=#9673a6;" parent="1" vertex="1">
          <mxGeometry x="-100.13999999999999" y="160" width="120" height="80" as="geometry" />
        </mxCell>
        <mxCell id="bkSHiZYTZ1AwlbhpygEu-6" value="" style="edgeStyle=orthogonalEdgeStyle;rounded=0;orthogonalLoop=1;jettySize=auto;html=1;fontColor=#000099;" parent="1" source="bkSHiZYTZ1AwlbhpygEu-1" target="bkSHiZYTZ1AwlbhpygEu-5" edge="1">
          <mxGeometry relative="1" as="geometry" />
        </mxCell>
        <mxCell id="bkSHiZYTZ1AwlbhpygEu-1" value="num, suma, contador" style="rounded=0;whiteSpace=wrap;html=1;fillColor=#d5e8d4;strokeColor=#82b366;" parent="1" vertex="1">
          <mxGeometry x="-105.13999999999999" y="280" width="130" height="60" as="geometry" />
        </mxCell>
        <mxCell id="bkSHiZYTZ1AwlbhpygEu-8" style="edgeStyle=orthogonalEdgeStyle;rounded=0;orthogonalLoop=1;jettySize=auto;html=1;fontColor=#000000;" parent="1" source="bkSHiZYTZ1AwlbhpygEu-5" edge="1">
          <mxGeometry relative="1" as="geometry">
            <mxPoint x="-200.14" y="470" as="targetPoint" />
          </mxGeometry>
        </mxCell>
        <mxCell id="bkSHiZYTZ1AwlbhpygEu-18" value="si" style="edgeLabel;html=1;align=center;verticalAlign=middle;resizable=0;points=[];fontColor=#000000;" parent="bkSHiZYTZ1AwlbhpygEu-8" vertex="1" connectable="0">
          <mxGeometry x="0.1355" y="-4" relative="1" as="geometry">
            <mxPoint as="offset" />
          </mxGeometry>
        </mxCell>
        <mxCell id="bkSHiZYTZ1AwlbhpygEu-17" style="edgeStyle=orthogonalEdgeStyle;rounded=0;orthogonalLoop=1;jettySize=auto;html=1;fontColor=#000000;" parent="1" source="bkSHiZYTZ1AwlbhpygEu-5" target="bkSHiZYTZ1AwlbhpygEu-16" edge="1">
          <mxGeometry relative="1" as="geometry">
            <Array as="points">
              <mxPoint x="129.86" y="420" />
            </Array>
          </mxGeometry>
        </mxCell>
        <mxCell id="bkSHiZYTZ1AwlbhpygEu-19" value="no" style="edgeLabel;html=1;align=center;verticalAlign=middle;resizable=0;points=[];fontColor=#000000;" parent="bkSHiZYTZ1AwlbhpygEu-17" vertex="1" connectable="0">
          <mxGeometry x="0.0909" y="1" relative="1" as="geometry">
            <mxPoint as="offset" />
          </mxGeometry>
        </mxCell>
        <mxCell id="bkSHiZYTZ1AwlbhpygEu-5" value="contador&amp;nbsp;&amp;gt;= 10&amp;nbsp;&amp;nbsp;" style="rhombus;whiteSpace=wrap;html=1;fillColor=#ffe6cc;strokeColor=#d79b00;" parent="1" vertex="1">
          <mxGeometry x="-95.13999999999999" y="380" width="110" height="80" as="geometry" />
        </mxCell>
        <mxCell id="bkSHiZYTZ1AwlbhpygEu-10" value="" style="edgeStyle=orthogonalEdgeStyle;rounded=0;orthogonalLoop=1;jettySize=auto;html=1;fontColor=#000000;" parent="1" source="bkSHiZYTZ1AwlbhpygEu-7" target="bkSHiZYTZ1AwlbhpygEu-9" edge="1">
          <mxGeometry relative="1" as="geometry">
            <Array as="points">
              <mxPoint x="-200.14" y="560" />
              <mxPoint x="-200.14" y="560" />
            </Array>
          </mxGeometry>
        </mxCell>
        <mxCell id="bkSHiZYTZ1AwlbhpygEu-7" value="&lt;font color=&quot;#000000&quot;&gt;&quot;ingresa un numero a sumar &quot;&lt;/font&gt;" style="shape=document;whiteSpace=wrap;html=1;boundedLbl=1;fillColor=#f8cecc;strokeColor=#b85450;" parent="1" vertex="1">
          <mxGeometry x="-280.14" y="470" width="180" height="80" as="geometry" />
        </mxCell>
        <mxCell id="bkSHiZYTZ1AwlbhpygEu-12" value="" style="edgeStyle=orthogonalEdgeStyle;rounded=0;orthogonalLoop=1;jettySize=auto;html=1;fontColor=#000000;" parent="1" source="bkSHiZYTZ1AwlbhpygEu-9" target="bkSHiZYTZ1AwlbhpygEu-11" edge="1">
          <mxGeometry relative="1" as="geometry" />
        </mxCell>
        <mxCell id="bkSHiZYTZ1AwlbhpygEu-9" value="num" style="shape=parallelogram;perimeter=parallelogramPerimeter;whiteSpace=wrap;html=1;fixedSize=1;fillColor=#dae8fc;strokeColor=#6c8ebf;" parent="1" vertex="1">
          <mxGeometry x="-260.14" y="590" width="120" height="60" as="geometry" />
        </mxCell>
        <mxCell id="bkSHiZYTZ1AwlbhpygEu-14" value="" style="edgeStyle=orthogonalEdgeStyle;rounded=0;orthogonalLoop=1;jettySize=auto;html=1;fontColor=#000000;" parent="1" source="bkSHiZYTZ1AwlbhpygEu-11" target="bkSHiZYTZ1AwlbhpygEu-13" edge="1">
          <mxGeometry relative="1" as="geometry" />
        </mxCell>
        <mxCell id="bkSHiZYTZ1AwlbhpygEu-11" value="suma = suma + numero" style="rounded=0;whiteSpace=wrap;html=1;fillColor=#d5e8d4;strokeColor=#82b366;" parent="1" vertex="1">
          <mxGeometry x="-280.14" y="690" width="160" height="60" as="geometry" />
        </mxCell>
        <mxCell id="bkSHiZYTZ1AwlbhpygEu-15" style="edgeStyle=orthogonalEdgeStyle;rounded=0;orthogonalLoop=1;jettySize=auto;html=1;fontColor=#000000;" parent="1" source="bkSHiZYTZ1AwlbhpygEu-13" edge="1">
          <mxGeometry relative="1" as="geometry">
            <mxPoint x="-40.14" y="357" as="targetPoint" />
            <Array as="points">
              <mxPoint x="-300.14" y="820" />
              <mxPoint x="-300.14" y="360" />
              <mxPoint x="-40.14" y="360" />
            </Array>
          </mxGeometry>
        </mxCell>
        <mxCell id="bkSHiZYTZ1AwlbhpygEu-13" value="contador = contador + 1" style="rounded=0;whiteSpace=wrap;html=1;fillColor=#d5e8d4;strokeColor=#82b366;" parent="1" vertex="1">
          <mxGeometry x="-275.14" y="790" width="150" height="60" as="geometry" />
        </mxCell>
        <mxCell id="DO3NgsnmDq3Lv3zhVBKj-2" style="edgeStyle=orthogonalEdgeStyle;rounded=0;orthogonalLoop=1;jettySize=auto;html=1;fontSize=13;fontColor=#000099;" edge="1" parent="1" source="bkSHiZYTZ1AwlbhpygEu-16" target="DO3NgsnmDq3Lv3zhVBKj-1">
          <mxGeometry relative="1" as="geometry">
            <Array as="points">
              <mxPoint x="130" y="820" />
              <mxPoint x="30" y="820" />
            </Array>
          </mxGeometry>
        </mxCell>
        <mxCell id="bkSHiZYTZ1AwlbhpygEu-16" value="&quot; el total de la suma es &quot;, suma" style="shape=document;whiteSpace=wrap;html=1;boundedLbl=1;fillColor=#f8cecc;strokeColor=#b85450;" parent="1" vertex="1">
          <mxGeometry x="-0.14000000000000057" y="470" width="280" height="80" as="geometry" />
        </mxCell>
        <mxCell id="bkSHiZYTZ1AwlbhpygEu-20" value="&lt;font color=&quot;#000099&quot; style=&quot;font-size: 20px;&quot;&gt;&lt;b&gt;suma de diez cantidades mediante la utilización de un ciclo “Mientras”&lt;/b&gt;&lt;/font&gt;" style="text;whiteSpace=wrap;html=1;fontColor=#000000;align=center;" parent="1" vertex="1">
          <mxGeometry x="-275.14" y="80" width="420" height="40" as="geometry" />
        </mxCell>
        <mxCell id="DO3NgsnmDq3Lv3zhVBKj-1" value="&lt;font style=&quot;font-size: 13px;&quot;&gt;fin&lt;/font&gt;" style="ellipse;whiteSpace=wrap;html=1;labelBackgroundColor=none;fontSize=20;fillColor=#e1d5e7;strokeColor=#9673a6;" vertex="1" parent="1">
          <mxGeometry x="-29.999999999999986" y="860" width="120" height="80" as="geometry" />
        </mxCell>
      </root>
    </mxGraphModel>
  </diagram>
</mxfile>
